
      <svg data-logo="logo" xmlns="http://www.w3.org/2000/svg" viewBox="0 0 194 36">
        <g id="logogram" transform="translate(0, 1) rotate(0) "><path d="M15.4992 0H36.5808L21.0816 22.9729H0L15.4992 0Z" fill="#FFFFFF"/><path d="M16.4224 25.102L10.4192 34H32.5008L48 11.0271H31.7024L22.2064 25.102H16.4224Z" fill="#B0B0B0"/></g>
        <g id="logotype" transform="translate(54, 5.5)"><path fill="#ffffff" d="M26.90 8.34Q26.90 10.47 25.92 12.24Q24.94 14.01 22.91 15.09Q20.88 16.18 17.87 16.18L17.87 16.18L14.16 16.18L14.16 25L8.17 25L8.17 0.43L17.87 0.43Q20.80 0.43 22.84 1.44Q24.87 2.46 25.88 4.24Q26.90 6.03 26.90 8.34L26.90 8.34ZM17.41 11.42Q19.13 11.42 19.97 10.61Q20.80 9.81 20.80 8.34L20.80 8.34Q20.80 6.87 19.97 6.06Q19.13 5.26 17.41 5.26L17.41 5.26L14.16 5.26L14.16 11.42L17.41 11.42ZM45.06 5.22L36.00 5.22L36.00 10.19L44.01 10.19L44.01 14.81L36.00 14.81L36.00 20.20L45.06 20.20L45.06 25L30.01 25L30.01 0.43L45.06 0.43L45.06 5.22ZM65.71 25L64.24 20.66L55.07 20.66L53.60 25L47.34 25L56.23 0.43L63.16 0.43L72.05 25L65.71 25ZM56.65 16.04L62.70 16.04L59.66 7.04L56.65 16.04ZM96.30 25L88.99 25L80.73 14.15L80.73 25L74.74 25L74.74 0.43L80.73 0.43L80.73 11.21L88.92 0.43L95.95 0.43L86.43 12.47L96.30 25ZM115.87 0.43L122.20 0.43L113.49 25L106.00 25L97.28 0.43L103.65 0.43L109.74 18.98L115.87 0.43ZM130.67 0.43L130.67 20.38L138.51 20.38L138.51 25L124.69 25L124.69 0.43L130.67 0.43Z"/></g>
        
      </svg>
    